<?xml version="1.0" standalone="no"?>
<!DOCTYPE svg PUBLIC "-//W3C//DTD SVG 1.1//EN" "http://www.w3.org/Graphics/SVG/1.1/DTD/svg11.dtd" >
<svg xmlns="http://www.w3.org/2000/svg">
<metadata></metadata>
<defs>
<font id="ferbtasticregular" horiz-adv-x="1014" >
<font-face units-per-em="2048" ascent="1638" descent="-410" />
<missing-glyph horiz-adv-x="508" />
<glyph horiz-adv-x="2048" />
<glyph horiz-adv-x="2048" />
<glyph unicode="&#xd;" horiz-adv-x="508" />
<glyph unicode=" "  horiz-adv-x="508" />
<glyph unicode="&#x09;" horiz-adv-x="508" />
<glyph unicode="&#xa0;" horiz-adv-x="508" />
<glyph unicode="!" horiz-adv-x="398" d="M69 1310h4l254 -10l5 -5l-37 -948l-158 -23l-5 5v5l-58 961zM113 269l2 3q191 -17 197 -22v-4l-1 -236h-3q-164 5 -165 15z" />
<glyph unicode="&#x22;" horiz-adv-x="776" d="M11 1597l162 -317q3 1 180 317v2zM362 1597l162 -317q3 1 180 317v2z" />
<glyph unicode="#" horiz-adv-x="1094" d="M-33 413q8 8 225 65l2 8l60 282l-3 1l-233 -72q-10 84 -3 119q4 17 112 39l157 42l104 482q6 7 128 15l2 -5l-1 -3q-41 -139 -105 -421l-3 -32l237 62l68 318l127 15l3 -5l-1 -3l-76 -292l231 60q42 -90 40 -102q-155 -30 -293 -68l-1 -4q-59 -303 -55 -304l262 66 l38 -94v-4q-5 -7 -204 -44l-118 -34l-96 -524l-4 -3h-3q-105 21 -130 59l9 27l85 400l-219 -66l-64 -351l-4 -3h-3q-135 34 -129 59l46 212l7 35l-3 1q-177 -59 -190 -56q-10 72 -2 123zM331 515l223 57l66 310l-237 -75l-5 -40z" />
<glyph unicode="$" horiz-adv-x="1015" d="M0 1023v27q0 99 94 232q113 92 251 92l5 5v88q0 15 166 48l4 -4v-5l-9 -167l234 -79l-77 -294q-104 54 -175 79v-4l5 -49v-101q27 -23 206 -118q211 -122 211 -220v-39q0 -173 -103 -321q-73 -52 -171 -52h-125l4 -88v-44l-9 -9q-188 7 -188 35v53l4 66q-180 17 -183 26 l-50 285h5l233 -21v114l4 118q-108 43 -291 211q-45 67 -45 136zM301 1045q11 -29 35 -48h5v74q-40 -10 -40 -26zM507 492l4 -31q45 11 45 40q0 23 -49 57v-66z" />
<glyph unicode="%" horiz-adv-x="1446" d="M0 1083q0 166 202 238l77 9q193 0 266 -192l9 -55q0 -178 -219 -247l-60 -5q-175 0 -258 167q-17 33 -17 85zM112 1147l206 -205l77 264q-283 -51 -283 -59zM124 205l897 1074q15 0 219 -115l5 -5v-8q-311 -310 -370 -418q-475 -660 -536 -733h-4q-211 172 -211 205z M845 418v4q0 172 215 239l56 8q208 0 279 -204l4 -47q0 -140 -154 -222q-54 -25 -103 -25h-39q-141 0 -232 144q-26 48 -26 103zM957 490q0 -11 206 -209l77 265z" />
<glyph unicode="&#x26;" horiz-adv-x="1021" d="M0 364q0 226 217 381v2q-120 191 -120 330v3q7 214 172 283q66 26 138 26q194 0 258 -155q19 -50 19 -111v-20q0 -206 -277 -378v-3q86 -136 269 -347h2q68 137 68 304v31q0 32 47 32h47q37 0 37 -32v-20q0 -227 -105 -418q127 -123 154 -123h26q13 0 16 -43v-46 q0 -57 -44 -57l-13 -3q-73 0 -225 158q-155 -158 -342 -158q-237 0 -323 223q-21 72 -21 141zM193 398l117 -301q9 7 181 313h-3zM271 1168q110 -284 120 -297l178 312h-3l-295 -12v-3z" />
<glyph unicode="'" horiz-adv-x="346" d="M11 1597l162 -317q3 1 180 317v2z" />
<glyph unicode="(" horiz-adv-x="758" d="M252 601q2 277 99.5 530t268.5 442h80q-172 -242 -230 -438q-57 -193 -57 -523v-22q0 -330 57 -522q58 -196 230 -438h-80q-171 189 -268.5 441.5t-99.5 529.5z" />
<glyph unicode=")" horiz-adv-x="758" d="M58 -370q172 242 230 438q57 192 57 522v22q0 330 -57 523q-58 196 -230 438h80q171 -189 268.5 -442t99.5 -530q-2 -277 -99.5 -529.5t-268.5 -441.5h-80z" />
<glyph unicode="*" horiz-adv-x="491" d="M20 1247h3l159 -27l32 192h1l80 -176l149 36v-2l-97 -133l94 -110l-1 -2h-1l-312 -34l-1 2v2l17 138q-95 85 -123 114z" />
<glyph unicode="+" d="M87 647v140h350v369l1 1h139v-370h349l1 -1v-139h-350v-370h-140v370h-350z" />
<glyph unicode="," horiz-adv-x="378" d="M10 -131q3 -2 328 158l1 2l-283 192z" />
<glyph unicode="-" horiz-adv-x="670" d="M116 437v83q0 29 41 29h356q41 0 41 -29v-83q0 -28 -40 -28h-358q-40 0 -40 28z" />
<glyph unicode="." horiz-adv-x="411" d="M47 162q0 63 43.5 107.5t105.5 44.5t105.5 -44.5t43.5 -107.5t-43.5 -108t-105.5 -45t-105.5 45t-43.5 108z" />
<glyph unicode="/" horiz-adv-x="569" d="M13 -50l541 1484h80l-541 -1484h-80z" />
<glyph unicode="0" horiz-adv-x="856" d="M0 712v25q0 327 157 562q110 150 240 150h8q190 0 321 -298q76 -196 76 -411v-38q0 -294 -144 -537q-121 -165 -243 -165h-31q-144 0 -273 222q-111 223 -111 490zM155 863q0 -6 315 -442h2l118 557z" />
<glyph unicode="1" horiz-adv-x="763" d="M0 835l586 674h7l103 -1469q0 -13 -348 -40l-6 6v6l103 961h-7q-411 -138 -438 -138z" />
<glyph unicode="2" d="M0 841q194 482 346 482h4q183 0 304 -199q28 -59 28 -103v-6q0 -219 -192 -816h5l304 64q185 -237 196 -237v-13l-37 -7l-622 -6l-4 6q215 756 215 893q0 116 -99 116q-167 0 -289 -238l-33 -45z" />
<glyph unicode="3" horiz-adv-x="836" d="M0 1279q222 51 346 51h15q178 0 178 -186q0 -151 -178 -379l-74 -103h158q321 0 321 -90q24 -17 30 -135v-51q0 -244 -124 -354q-75 -32 -148 -32h-84q-158 0 -277 19l30 174h5l183 -26q126 0 202 231l5 32q0 94 -366 155l-4 6q168 360 168 431q0 36 -55 45h-5 q-111 0 -291 -110q-9 0 -35 322z" />
<glyph unicode="4" horiz-adv-x="955" d="M0 513v4q536 785 579 839h3l68 -98l-359 -518v-4q211 -22 334 -22l96 490l174 -9q14 -6 14 -13l-85 -673l81 -505l-3 -4h-252l-7 9l-15 450z" />
<glyph unicode="5" horiz-adv-x="955" d="M0 494l221 62q23 -220 72 -220q0 -13 96 -20q264 0 264 116q10 0 10 69q0 102 -58 144q-182 110 -317 110q-82 14 -82 34l-81 337l706 137l38 -117q0 -16 -379 -68l-130 -28v-41l-5 -82h5q246 0 384 -117q91 -175 91 -378v-41q0 -195 -153 -274q-217 -117 -375 -117h-53 q-148 0 -225 398z" />
<glyph unicode="6" horiz-adv-x="928" d="M0 316v20q0 281 106 600q54 150 281 352q65 68 102 68l130 20l4 -4v-4l-60 -252q-105 -39 -162 -104q-35 0 -102 -288h4q163 44 288 44h4q132 0 172 -72q95 -202 95 -384v-32q0 -176 -148 -220q-186 -60 -341 -60h-67q-206 0 -267 100q-39 90 -39 216zM257 456l179 -308 h4l232 396v4h-4z" />
<glyph unicode="7" d="M0 1096q34 313 48 313l869 -48l5 -6q-469 -1192 -544 -1355l-271 102l367 953h-5l-448 27z" />
<glyph unicode="8" d="M0 436v6q0 212 177 360q-97 82 -97 223q0 195 247 295q64 16 118 16h11q269 0 359 -273v-54q0 -113 -97 -213q177 -138 177 -343v-11q0 -285 -289 -415q-74 -27 -129 -27h-43q-252 0 -396 262q-38 87 -38 174zM209 1112l241 -278q11 8 118 355h-5zM241 523l252 -278 l107 355h-5z" />
<glyph unicode="9" horiz-adv-x="962" d="M4 1068v32q2 176 150 219q188 58 342 56h67q206 -2 266 -103q38 -91 37 -216v-20q-3 -281 -112 -599q-56 -149 -285 -349q-66 -68 -103 -67l-130 -19l-4 4v4l63 251q105 39 163 103q35 -1 105 287h-4q-164 -43 -289 -41h-3q-133 1 -172 73q-93 203 -91 385zM191 830h4 l413 88l-177 310h-3l-237 -394v-4z" />
<glyph unicode=":" horiz-adv-x="338" d="M54 292q0 53 35 91t84 38t84 -38t35 -91q0 -54 -35 -92t-84 -38t-84 38t-35 92zM54 690q0 53 35 91t84 38t84 -38t35 -91q0 -54 -35 -92t-84 -38t-84 38t-35 92z" />
<glyph unicode=";" horiz-adv-x="398" d="M31 -92q3 -1 342 126l1 1l-263 219zM40 461q0 63 43.5 107.5t105.5 44.5t105.5 -44.5t43.5 -107.5t-43.5 -108t-105.5 -45t-105.5 45t-43.5 108z" />
<glyph unicode="&#x3c;" d="M13 712v10l57 31q835 492 852 495v-1063l-3 -3z" />
<glyph unicode="=" d="M87 491v140h840v-140h-840zM87 803v140h840v-140h-840z" />
<glyph unicode="&#x3e;" d="M86 185v1063q16 -3 827 -495l55 -31v-10l-879 -530z" />
<glyph unicode="?" horiz-adv-x="557" d="M0 1180q0 141 80 208q63 28 140 28h32q211 0 268 -180v-16q0 -50 -168 -204q-36 -47 -36 -92l16 -524l-4 -4h-248l-8 8l104 544q47 128 152 180q72 41 72 76v4q0 84 -68 84h-32q-132 0 -132 -68v-28l4 -32h-4l-152 4zM20 328v8q386 -24 408 -32q-154 -279 -176 -304z" />
<glyph unicode="@" horiz-adv-x="1220" d="M37 301q0 528 394 680q147 50 218 50h7q202 0 401 -258q88 -142 88 -379v-100q0 -221 -204 -294h-14q-183 0 -237 86l10 3q-12 31 -16 33q-98 -63 -152 -63h-37q-141 0 -178 108q-22 47 -22 92v12q0 80 139 253q100 86 144 94q12 0 18 29l8 4l218 2l2 -2l8 -530l34 -6h7 q67 0 136 143l7 79v114q0 291 -265 487l-68 7q-169 0 -415 -251q-88 -136 -88 -408q0 -229 122 -265l299 -107v-7q-27 -86 -47 -86q-296 112 -456 265q-61 67 -61 215zM471 281l185 -16l-22 210z" />
<glyph unicode="A" horiz-adv-x="1114" d="M0 175q573 1219 592 1254h2l494 -1167l-298 -166l-138 428l-152 4q-124 0 -124 -45l-164 -481l-2 -2h-2zM418 651l322 55l-148 428h-2q-133 -399 -172 -483z" />
<glyph unicode="B" horiz-adv-x="1001" d="M0 1433l2 3q373 -72 535 -131q147 -59 147 -221q0 -128 -90 -191q-43 -42 -133 -103v-2q323 -151 430 -224q64 -50 64 -89v-16q0 -100 -337 -275q-96 -50 -350 -129q-128 -37 -218 -55l-2 3v2zM202 948l299 123v3l-299 120v-246zM264 302l432 186v6l-432 183v-375z" />
<glyph unicode="C" horiz-adv-x="1035" d="M0 680v12q0 327 384 639q118 98 377 98h219l8 -8l-8 -395l-4 -4q-160 77 -251 77h-31q-156 0 -310 -126q-90 -125 -90 -318v-52q0 -178 180 -241q182 -77 392 -77h63q47 0 47 -16l12 -265l-4 -4h-47q-472 0 -714 114q-133 98 -199 354q-24 120 -24 212z" />
<glyph unicode="D" horiz-adv-x="1353" d="M0 1404l4 5q837 -161 1013 -265q183 -113 183 -330v-36q0 -213 -179 -334q-202 -171 -288 -197q-381 -247 -529 -247h-16q-67 0 -105 55zM358 380l417 325v4l-412 316h-5v-645z" />
<glyph unicode="E" horiz-adv-x="1001" d="M0 1358l4 5h5l799 -71q-18 -234 -35 -234l-339 23l-25 -301h320l9 -9q-11 -193 -21 -193q-287 -47 -313 -61l-39 -188h5l508 47l4 -5v-339q0 -10 -30 -13l-692 -19q-78 407 -160 1358z" />
<glyph unicode="F" horiz-adv-x="1079" d="M0 1208v8q224 44 224 52l-56 44h8l260 -44q83 40 212 56l260 -24v-4q0 -9 -144 -44v-4q116 -44 216 -124q28 -39 28 -96q-4 -104 -16 -104q-211 80 -268 80l-92 -16v-72q88 -105 88 -144l-12 -76q220 0 220 -92l4 -32v-24q-10 -184 -84 -184l-40 -4l-156 12l-8 -124v-12 q0 -29 48 -44l8 -16q-19 -30 -48 -176l-284 44l-4 4v4l-24 432q-136 43 -136 100v8q21 35 92 72q-56 156 -56 228q0 55 16 148l-176 -44v4l132 148v4z" />
<glyph unicode="G" horiz-adv-x="1479" d="M0 666q0 223 172 479q104 115 180 149q149 88 275 112q97 23 260 23h87q7 0 52 -247l-3 -3q-137 37 -236 37h-31q-117 0 -206 -92q-226 -215 -226 -416q0 -184 103 -388q70 -121 164 -148q98 -29 219 -29h33q201 0 355 39q38 23 38 57v19l-10 80v6l-182 13l20 158l3 3 h339q10 0 13 -154v-46q0 -204 -87 -245q-103 -73 -383 -73h-198q-476 0 -592 151q-96 96 -146 362q-13 87 -13 153z" />
<glyph unicode="H" horiz-adv-x="1287" d="M0 8l32 1300l4 12q22 0 316 -120q48 -490 56 -504l324 -84v4l-84 600l4 4q430 -48 452 -56l104 -1144q0 -9 -312 -20l-112 436l-344 68l-56 -504h-376z" />
<glyph unicode="I" horiz-adv-x="604" d="M0 1332l4 4h480l7 -7l-39 -1282l-342 -47l-3 4v3z" />
<glyph unicode="J" horiz-adv-x="663" d="M0 380v17q0 116 11 185l181 -60l-11 -211q0 -110 99 -143h13q72 0 103 389q22 186 66 724l150 35l4 -22l7 -444v-121q0 -584 -123 -686q-60 -43 -119 -43h-44q-136 0 -289 116q-48 69 -48 264z" />
<glyph unicode="K" horiz-adv-x="1240" d="M0 1262l4 4h346q15 0 23 -205l20 -213l443 468l334 -101v-4l-657 -522q640 -271 661 -286v-4q-98 -295 -105 -298l-777 367l151 -464l-4 -4h-4q-384 9 -384 23z" />
<glyph unicode="L" horiz-adv-x="683" d="M0 1313l2 3q221 -73 225 -80l-37 -962l458 45l2 -4v-3l-19 -312h-2q-455 90 -511 107z" />
<glyph unicode="M" horiz-adv-x="1598" d="M0 45l392 1271h4q441 -1078 462 -1115l148 937h4l529 -1116l-4 -4h-4l-250 40q-182 438 -188 442q-71 -377 -102 -500h-4q-325 12 -325 27l-247 606q-10 0 -94 -356l-66 -241h-247z" />
<glyph unicode="N" horiz-adv-x="1313" d="M0 45l364 1285h3l429 -1127l142 956l211 13h29l29 -9q0 -185 -109 -527q-171 -630 -178 -636h-4q-302 12 -302 27l-229 613q-8 0 -69 -284l-80 -320h-229z" />
<glyph unicode="O" horiz-adv-x="1360" d="M0 644v22q0 296 254 508q179 136 389 136h14q308 0 519 -269q124 -178 124 -372v-34q0 -266 -233 -486q-197 -149 -395 -149h-50q-233 0 -442 201q-180 201 -180 443zM251 845q0 -7 495 -560h3l185 706z" />
<glyph unicode="P" horiz-adv-x="1121" d="M0 951v3q0 44 118 161l-4 77q0 62 62 97q10 11 31 21l2 -2v-52l2 -36q101 73 148 73q38 0 101 -13v-4l-128 -69v-2l80 -73q0 -5 -143 -58v-2q0 -12 73 -30q49 -20 60 -20l89 11q67 0 116 -77l8 -7l44 11h10q45 0 77 -47q17 -39 17 -69l358 -161v-2q-248 -217 -359 -267 q-74 -30 -225 -60l16 -352l-2 -2l-190 11l-2 -2h-1q-16 0 -16 23q-6 0 -13 477q0 67 -22 129q-11 19 -52 30q-12 0 -15 32l9 34l-17 194l-70 -78h-2l4 65h-2l-46 -24q-4 4 -27 86l-87 -28zM475 784l49 -260h4l276 137z" />
<glyph unicode="Q" horiz-adv-x="1194" d="M0 689v21q0 281 217 483q153 130 333 130h12q263 0 444 -256q106 -170 106 -354v-32q0 -248 -189 -451v-3q257 -125 257 -130v-3l-381 -94h-2q-52 108 -61 109q-87 -32 -161 -32h-43q-199 0 -378 191q-154 191 -154 421zM229 636q0 -199 174 -347q83 -62 182 -62 q28 0 86 15l-76 144l3 3l176 -86h3q128 126 128 289v24q0 155 -108 280q-104 126 -245 126q-171 0 -277 -185q-46 -89 -46 -192v-9z" />
<glyph unicode="R" horiz-adv-x="875" d="M0 45l56 1103q296 142 400 142q130 0 268 -164q44 -70 44 -142v-24q0 -129 -72 -324q-15 -45 -131 -158l-11 -9l242 -414q-23 -10 -253 -55q-109 193 -187 288q-32 33 -75 33q-67 0 -103 -82q-8 -53 -8 -118l3 -100l-3 -3zM242 972l36 -282h3l245 182l-284 103v-3z" />
<glyph unicode="S" horiz-adv-x="1085" d="M0 1020q0 118 100 264q127 120 300 120h12q106 0 464 -128v-4l-84 -328h-4q-254 120 -320 120h-36q-76 -7 -76 -32q0 -54 276 -208q234 -116 364 -212q84 -81 84 -152v-16q0 -164 -88 -340q-68 -104 -252 -104h-48q-159 0 -520 40l-60 328l4 4q172 -28 288 -28 q252 13 252 52l4 12q0 56 -312 228q-159 87 -296 216q-52 78 -52 168z" />
<glyph unicode="T" horiz-adv-x="1081" d="M0 990v5q17 313 23 313l982 15l3 -5v-5l-7 -323l-10 -20l-472 25l3 -5v-5l57 -980l-3 -5h-4l-249 10q-7 0 -34 985h-3l-283 -10z" />
<glyph unicode="U" horiz-adv-x="1273" d="M0 1242q30 11 455 60q9 0 19 -323q16 -176 52 -285q133 -301 230 -317h8q87 0 181 430l8 96q0 99 -28 387h4l231 33q20 -185 20 -360v-75q0 -232 -110 -608q-60 -168 -227 -247q-82 -33 -142 -33h-39q-219 0 -458 381q-65 141 -113 340q-55 279 -91 521z" />
<glyph unicode="V" horiz-adv-x="1207" d="M0 1245l5 6h5l366 24q10 -23 86 -593h5l487 629l188 12l5 -6v-6l-508 -1311h-5q-17 18 -634 1245z" />
<glyph unicode="W" horiz-adv-x="1817" d="M0 1160l4 5h4l303 23q8 -22 71 -552h4l403 585h42l-4 28l306 22l76 -552h4l399 586l159 11v-6q-411 -1208 -424 -1221q-12 11 -432 954l-13 33q-10 -6 -373 -1076h-4q-14 17 -525 1160z" />
<glyph unicode="X" horiz-adv-x="1088" d="M0 1266l5 5h4l326 15q9 -17 77 -490l434 519l13 5l145 5l14 5l4 -5v-5l-325 -776q357 -468 357 -485h-5l-325 -19q-23 100 -77 489h-5q-427 -519 -438 -519l-190 -10v10l348 588z" />
<glyph unicode="Y" horiz-adv-x="1021" d="M0 1251l4 5h5l310 15l74 -478q23 0 95 104l327 409h5l138 5l13 5l4 -5v-5l-349 -872l21 -419l-4 -5h-5l-211 -10q-9 0 -26 469z" />
<glyph unicode="Z" horiz-adv-x="1124" d="M0 11v63l450 923l-450 193v109l8 11h957q-3 -22 -315 -797l458 -200v-302l-8 -11h-1092zM1072 348v32h8v-32h-8zM1076 296v12h8v-12h-8z" />
<glyph unicode="[" horiz-adv-x="758" />
<glyph unicode="\" horiz-adv-x="569" />
<glyph unicode="]" horiz-adv-x="758" />
<glyph unicode="^" />
<glyph unicode="_" horiz-adv-x="1024" d="M0 -100h1024v-60h-1024v60z" />
<glyph unicode="`" horiz-adv-x="418" d="M-1 1502l1 -2q341 -173 344 -172l-33 354z" />
<glyph unicode="a" horiz-adv-x="856" d="M0 272v16q0 108 206 343q149 117 214 128q17 0 26 39l12 5l323 3l3 -3l12 -753q-125 -26 -185 -34q-27 65 -35 70q-145 -86 -224 -86h-55q-209 0 -265 147q-32 63 -32 125zM261 301l274 -21l-33 285z" />
<glyph unicode="b" horiz-adv-x="809" d="M93 1163v39q0 112 32 112l15 2l18 -2q88 9 154 9h36q45 0 45 -11q5 -685 15 -685q62 -11 97 -39q71 -34 138 -117q126 -157 126 -232v-18q0 -87 -77 -173q-63 -48 -166 -48h-48q-66 0 -191 72q-24 -59 -32 -59l-151 28l3 22l9 562q0 68 -23 538zM323 232l227 17l-200 217 z" />
<glyph unicode="c" horiz-adv-x="809" d="M0 396v7q0 190 289 372q88 57 283 57h165l6 -5l-6 -230l-3 -2q-121 45 -189 45h-23q-117 0 -233 -73q-68 -73 -68 -185v-31q0 -103 136 -140q136 -45 295 -45h47q35 0 35 -10l9 -154l-3 -2h-35q-355 0 -537 66q-100 57 -150 207q-18 70 -18 123z" />
<glyph unicode="d" horiz-adv-x="902" d="M106 186v14q0 62 141 188q75 67 154 95q40 23 108 31q12 0 18 555q0 9 50 9h41q73 0 171 -7l20 2l18 -2q35 0 35 -91v-32q-25 -380 -25 -435l10 -455l2 -18l-168 -22q-9 0 -36 47q-140 -58 -214 -58h-53q-116 0 -186 39q-86 70 -86 140zM350 209l255 -14l-30 189z" />
<glyph unicode="e" horiz-adv-x="842" d="M0 273v4q0 373 112 476q84 73 179 73h4q118 0 291 -131q61 -69 116 -215l-447 -150q49 -88 112 -88h22q122 0 242 146l13 4l152 -100q-36 -105 -170 -181q-176 -111 -264 -111h-27q-146 0 -299 138q-36 58 -36 135zM239 433l232 120l-214 147l-3 -2z" />
<glyph unicode="f" horiz-adv-x="559" d="M0 892v6q121 33 121 39l-30 32h4l140 -32q45 29 115 41l140 -18v-3q0 -6 -78 -32v-3q63 -33 117 -92q15 -29 15 -71q-2 -76 -9 -76q-114 59 -144 59l-50 -12v-53q48 -78 48 -107l-7 -56q119 0 119 -68l2 -23v-18q-5 -136 -45 -136l-22 -3l-84 9l-4 -92v-9q0 -21 25 -32 l5 -12q-10 -22 -26 -130l-153 33l-3 2v3l-13 320q-73 31 -73 73v6q11 26 50 53q-30 116 -30 169q0 41 8 109l-95 -32v3l71 109v3z" />
<glyph unicode="g" horiz-adv-x="716" d="M20 383q0 251 262 331q50 32 135 32h68l114 -5q7 0 63 -448q34 -138 34 -281v-32q0 -115 -93 -154q-127 -59 -270 -59h-51q-74 0 -161 168q11 17 102 95q58 -150 110 -150q160 45 232 145q14 38 17 96l-4 90q-139 -113 -330 -113q-156 0 -215 186q-13 57 -13 99zM143 483 l249 -236h4v5l51 331z" />
<glyph unicode="h" horiz-adv-x="783" d="M0 1393h9l365 -22l8 -8l-52 -731q75 52 113 52h9q197 0 269 -177q35 -63 35 -140q-31 -377 -61 -377h-9l-217 7l-8 8q26 209 26 384q0 81 -79 81h-26q-43 0 -78 -37l-17 -413l-9 -8h-208l-18 15v502q0 457 -52 864z" />
<glyph unicode="i" horiz-adv-x="411" d="M46 1451l4 5q332 -47 341 -56v-5l-25 -357h-4q-287 27 -287 42zM96 952h4l253 -21l5 -5l-77 -911l-158 -15l-5 5v5l-18 927z" />
<glyph unicode="j" horiz-adv-x="398" d="M-557 44l3 13q136 82 161 82h3q30 -223 98 -242q19 -2 39 -2q130 0 289 86q66 49 90 157l19 109l3 12l-49 242q-1 260 -1 396v104l247 -4l-58 -716q-2 -168 -39 -331l-11 -51q-37 -162 -175 -180q-75 -13 -150 -13q-117 0 -235 32l-68 19q-103 28 -166 287zM86 1359l4 4 q293 -37 301 -44v-4l-22 -277h-3q-254 21 -254 33z" />
<glyph unicode="k" horiz-adv-x="763" d="M128 24l8 954l9 1q145 -13 147 -28l1 -345q351 300 366 302l47 -206l-266 -182q206 -278 213 -367q1 -7 0 -14q0 -66 -51 -165q-194 1 -195 14v4q16 124 16 176v15q-9 106 -127 209l-11 -356l-4 -5l-144 -11l-5 4h-4z" />
<glyph unicode="l" horiz-adv-x="259" d="M0 32l31 1340l195 37l6 -6v-7q-31 -219 -31 -423l31 -967l-6 -6h-7q-219 13 -219 32z" />
<glyph unicode="m" horiz-adv-x="1393" d="M0 940l337 91l5 -17l-5 -215h5q78 79 184 79q151 0 245 -130q115 124 210 124h76q235 0 317 -311l5 -74v-17q0 -183 -46 -459h-281l-5 6h-5q20 214 20 391v62q0 153 -168 153h-31l-25 -6q20 -60 20 -118v-12q0 -204 -46 -476h-281l-5 6h-5q20 214 20 391v62 q0 153 -168 153h-41q-20 0 -26 -600l-25 -12l-250 -11l-5 6l-21 895z" />
<glyph unicode="n" horiz-adv-x="802" d="M0 802l302 77l5 -5v-5l-5 -174v-19q74 68 139 68h61q178 0 265 -251l9 -87q0 -143 -42 -392h-4l-251 -4l-5 14l19 333q0 174 -131 174h-69l-10 -9q-5 -508 -23 -508l-237 -14l-4 5v5z" />
<glyph unicode="o" horiz-adv-x="862" d="M20 363v12q0 174 150 297q106 80 230 80h9q182 0 307 -157q73 -104 73 -218v-20q0 -155 -138 -284q-116 -87 -233 -87h-30q-138 0 -262 118q-106 117 -106 259zM168 480q0 -4 293 -327h2l109 412z" />
<glyph unicode="p" horiz-adv-x="1147" d="M27 679v3q0 44 118 161l-4 77q0 62 62 97q10 11 31 21l2 -2v-52l2 -36q101 73 148 73q38 0 101 -13v-4l-128 -69v-2l80 -73q0 -5 -143 -58v-2q0 -12 73 -30q49 -20 60 -20l89 11q67 0 116 -77l8 -7l44 11h10q45 0 77 -47q17 -39 17 -69l358 -161v-2q-248 -217 -359 -267 q-74 -30 -225 -60l16 -352l-2 -2l-190 11l-2 -2h-1q-16 0 -16 23q-6 0 -13 477q0 67 -22 129q-11 19 -52 30q-12 0 -15 32l9 34l-17 194l-70 -78h-2l4 65h-2l-46 -24q-4 4 -27 86l-87 -28zM502 512l49 -260h4l276 137z" />
<glyph unicode="q" horiz-adv-x="1220" d="M21 330v2l375 161q0 30 17 69q34 47 81 47h10l46 -11l9 7q51 77 121 77l93 -11q12 0 63 20q77 18 77 30v2q-150 53 -150 58l84 73v2l-134 69v4q66 13 105 13q50 0 155 -73l2 36v52l2 2q22 -10 33 -21q65 -35 65 -97l-4 -77q123 -117 123 -161v-3l-2 -2l-91 28 q-24 -82 -28 -86l-49 24h-2l5 -65h-3l-73 78l-18 -194l10 -34q-3 -32 -16 -32q-43 -11 -54 -30q-23 -62 -23 -129q-8 -477 -14 -477q0 -23 -17 -23h-1l-2 2l-199 -11l-2 2l17 352q-158 30 -235 60q-116 50 -376 267zM353 310l289 -137h4l51 260z" />
<glyph unicode="r" horiz-adv-x="663" d="M0 894l5 5h168l11 -10v-177h5q101 103 179 103q289 -44 289 -68q-60 -149 -68 -153h-6q-80 35 -131 35h-16q-68 -6 -189 -98l-10 -526l-6 -5h-147l-10 10z" />
<glyph unicode="s" horiz-adv-x="702" d="M0 580q0 68 64 151q82 68 194 68h8q68 0 299 -73v-2l-55 -187h-2q-164 69 -206 69h-24q-49 -4 -49 -19q0 -30 178 -118q151 -66 235 -121q54 -46 54 -86v-9q0 -94 -57 -194q-44 -59 -162 -59h-31q-103 0 -335 23l-39 186l3 3q111 -16 185 -16q163 7 163 29l2 7 q0 32 -201 130q-102 49 -190 123q-34 44 -34 95z" />
<glyph unicode="t" horiz-adv-x="674" d="M0 896l152 34l-12 183l-5 5l5 6h236l6 -6h6l-68 -205h6q337 -36 337 -51q-35 -149 -51 -149l-264 -11l96 -685q0 -11 -315 -17l-5 6l-12 656q0 40 -67 40q-34 10 -34 34z" />
<glyph unicode="u" horiz-adv-x="1059" d="M0 831q26 7 396 40q8 0 17 -216q14 -118 45 -191q116 -201 201 -212h7q75 0 157 288l7 64q0 66 -24 259h3l202 22q17 -124 17 -241v-50q0 -155 -96 -407q-52 -112 -198 -165q-71 -22 -123 -22h-34q-191 0 -399 255q-57 94 -99 227q-48 187 -79 349z" />
<glyph unicode="v" horiz-adv-x="993" d="M0 908l4 4h4l303 18q8 -17 71 -433h4l402 459l156 9l4 -4v-5l-420 -956h-4q-14 13 -524 908z" />
<glyph unicode="w" horiz-adv-x="1415" d="M0 946l4 5h3l256 17q7 -17 60 -449h3l340 477l10 1h3l118 8l4 -4v-5l-5 -14l296 -471h2q47 432 53 450l226 -18h3l3 -5q-380 -932 -390 -945h-3l-254 809l-286 -801h-4q-11 13 -442 945z" />
<glyph unicode="x" horiz-adv-x="1010" d="M0 962l5 4h3l300 12q8 -13 70 -373l399 395l12 3l133 4l13 4l4 -4v-4l-299 -589q328 -356 328 -369h-5l-298 -15q-21 76 -71 372h-4q-393 -394 -403 -394l-174 -8v8l319 447z" />
<glyph unicode="y" horiz-adv-x="988" d="M0 655l247 108l3 -4q-6 -16 -6 -60v-52q0 -131 133 -171h57q60 0 224 86h7l-97 294l230 89q84 -413 130 -606l7 -93v-19q0 -118 -83 -149q-191 -78 -438 -78h-67q-123 0 -243 164l140 89h10q70 -141 153 -141q127 0 328 126q33 40 33 93l-3 104q-206 -122 -458 -122 q-178 0 -240 133q-37 76 -67 209z" />
<glyph unicode="z" horiz-adv-x="809" d="M0 7v39l310 567l-310 119v67l6 7h659q-3 -14 -217 -490l315 -123v-186l-6 -7h-751z" />
<glyph unicode="{" d="M240 638v60q172 5 223 71t51 133v468q0 74 77 141.5t185 67.5h108v-50h-90q-61 0 -107 -33.5t-47 -91.5v-500q0 -83 -60.5 -158.5t-142.5 -76.5v-2q82 -1 143 -76t61 -158l-1 -500q1 -58 47 -91.5t107 -33.5h90v-50h-108q-108 0 -184.5 67.5t-77.5 141.5v468 q0 66 -51 132t-223 71z" />
<glyph unicode="|" d="M427 -418v1995h160v-1995h-160z" />
<glyph unicode="}" d="M130 -192h90q61 0 107 33.5t47 91.5l-1 500q0 83 61 158t144 76v2q-83 1 -143.5 76.5t-60.5 158.5v500q-1 58 -47 91.5t-107 33.5h-90v50h108q108 0 185 -67.5t77 -141.5v-468q0 -67 51 -133t223 -71v-60q-172 -5 -223 -71t-51 -132v-468q-1 -74 -77.5 -141.5 t-184.5 -67.5h-108v50z" />
<glyph unicode="~" d="M94 556v156q64 73 123 99t114 26q64 0 181.5 -49.5t172.5 -49.5q52 0 108.5 28t129.5 112v-156q-63 -72 -122 -97.5t-116 -25.5q-60 0 -177.5 48.5t-176.5 48.5q-51 0 -107.5 -28t-129.5 -112z" />
<glyph unicode="&#xa1;" horiz-adv-x="391" d="M53 -162l61 948l157 18l5 -5v-5l35 -962l4 -15h-4l-253 16zM99 883v3l7 237h2q165 -10 165 -20l24 -244l-2 -4q-191 22 -196 28z" />
<glyph unicode="&#xa2;" horiz-adv-x="1139" />
<glyph unicode="&#xa3;" d="M76 673v60h135q-58 143 -58 253q0 226 123.5 347t306.5 121h4q75 0 185.5 -14t110.5 -34v-161h-58q-5 61 -77 102q-72 31 -160 31h-2q-100 0 -190 -101q-84 -93 -84 -241q0 -15 1 -30q0 -135 53 -273h360v-60h-334q14 -30 31 -60q35 -63 35 -138q0 -161 -162 -375h402 q130 0 189 132l49 -1l-103 -231h-719l1 50q187 238 187 418q0 77 -34 143q-17 32 -31 62h-161z" />
<glyph unicode="&#xa4;" d="M122 413l118 117q-32 46 -48 103q-12 42 -12 84q0 44 13 87q16 55 47 99l-118 118l80 81l118 -118q44 30 99 46q44 14 89 14q41 0 83 -12q57 -17 102 -48l118 118l80 -81l-117 -117q31 -46 48 -102q12 -42 12 -85q0 -42 -12 -85q-17 -56 -48 -102l117 -117l-80 -81 l-118 118q-45 -32 -101 -48q-42 -12 -85 -12q-42 0 -85 12q-57 16 -102 48l-118 -118zM284 716q0 -28 9 -56q16 -59 57 -100q41 -40 99 -57q29 -8 58 -8t58 8q58 17 99 57q40 41 57 99q9 29 9 58t-9 58q-17 58 -57 99q-41 40 -100 57q-29 8 -58 8t-58 -9q-58 -17 -98 -56 q-39 -40 -56 -98q-10 -30 -10 -60z" />
<glyph unicode="&#xa5;" horiz-adv-x="1262" d="M8 1176q0 19 10.5 27.5t32.5 8.5q27 0 123 -8t164 -8h57h31q33 0 41 -6.5t8 -26.5q0 -8 -15 -14t-38 -6q-6 0 -18.5 2t-18.5 2q-24 0 -37.5 -9.5t-13.5 -25.5q0 -18 16.5 -52t46.5 -77l158 -221q13 -19 33 -53q41 -70 71 -70q9 0 16.5 5t14.5 15l277 396q8 12 13 26.5 t5 24.5q0 18 -10 27t-37 14q-15 2 -41 4q-47 3 -47 25q0 15 8 22.5t25 7.5q3 0 15 -1q56 -7 108 -7h139q30 0 65 1t37 1q11 0 18.5 -4.5t8.5 -11.5q0 -28 -38 -34q-18 -3 -27 -5q-63 -15 -147 -117q-7 -9 -12 -15l-169 -206h323q15 0 24 -6t9 -17q0 -15 -6 -20.5t-23 -5.5 h-366q-46 -57 -96.5 -112.5t-52.5 -59.5h511q18 0 25.5 -5.5t7.5 -17.5q0 -14 -7 -21t-22 -7h-530q0 -11 -1 -30.5t-1 -29.5l2 -215q0 -114 5.5 -150t20.5 -44q30 -17 107.5 -19t77.5 -31q0 -12 -10 -20t-25 -8q-2 0 -35.5 4t-64.5 4q-91 0 -208.5 -4t-142.5 -4q-31 0 -40 4 t-9 16t8 18.5t37 12.5q9 2 25 5q74 16 92 32q17 13 24 47t7 102l-2 242q0 19 -1.5 35t-4.5 32l-484 1q-14 0 -21 6.5t-7 19.5t6.5 19t21.5 6h467l-121 172h-344q-17 0 -23.5 5.5t-6.5 18.5q0 14 6 19.5t22 5.5h307q-43 57 -108 155q-131 197 -227 197q-7 0 -13 5.5t-6 11.5z " />
<glyph unicode="&#xa6;" d="M427 371h160v-789h-160v789zM427 789v789h160v-789h-160z" />
<glyph unicode="&#xa7;" d="M170 1130q0 148 89 237q82 79 216 86q8 1 17 1h3q66 0 163 -16.5t97 -41.5v-194h-51q-5 81 -80 132q-70 47 -149 51h-15q-78 0 -125 -44.5t-47 -117.5q0 -132 287 -269q149 -67 204.5 -143.5t55.5 -187.5q0 -171 -101 -282q-47 -39 -99 -64q108 -56 154 -118 q55 -77 55 -187q0 -171 -101 -283q-124 -102 -277 -105v1q-6 -1 -13 -1h-3q-66 0 -163 16.5t-97 41.5v194h51q5 -81 80 -132q68 -45 145 -50q113 6 185 69q72 64 72 165q0 125 -316 276q-123 64 -175.5 137t-52.5 177q0 148 89 237q67 65 170 82l-40 19q-123 64 -175.5 137 t-52.5 177zM297 571q0 -123 248 -250q56 16 97 53q73 65 73 166q0 5 -1 10h-2q-1 14 -4 27q-22 61 -113 127q-59 29 -126 29q-78 0 -125 -44.5t-47 -117.5z" />
<glyph unicode="&#xa8;" horiz-adv-x="1024" d="M209 1263q0 13 14 26l71 72q13 12 25 12q11 0 27 -14l69 -73q10 -14 10 -25q0 -13 -12 -27l-69 -75q-17 -17 -25 -17q-14 0 -25 12l-76 86q-9 12 -9 23zM574 1263q0 13 14 26l71 72q13 12 25 12q11 0 27 -13l69 -74q10 -14 10 -25q0 -13 -12 -26l-69 -76q-17 -17 -25 -17 q-14 0 -25 12l-76 87q-9 11 -9 22z" />
<glyph unicode="&#xa9;" horiz-adv-x="1674" d="M100 718q0 148 55.5 283t159.5 238q102 104 238.5 160.5t286.5 56.5q145 0 280 -56.5t239 -160.5q102 -101 158.5 -238t56.5 -283q0 -147 -56.5 -282t-162.5 -240q-105 -105 -239 -159.5t-283 -54.5q-146 0 -278 55.5t-238 160.5q-106 104 -161.5 237.5t-55.5 282.5z M160 718q0 -137 51 -259t148 -219q98 -96 219 -147t256 -51q137 0 259.5 50.5t219.5 145.5q97 98 149 221.5t52 258.5q0 134 -52 259.5t-145 219.5q-96 96 -220 147.5t-258 51.5q-137 0 -262 -51.5t-220 -147.5t-146 -219.5t-51 -259.5zM351 719q0 126 65.5 244t187.5 184.5 t254 66.5q38 0 75 -6.5t76 -20.5q5 -1 9 -1q19 0 26 30h42l72 -198h-44q-52 94 -131 124q-72 26 -147 26h-15q-86 -8 -166.5 -71t-121.5 -177q-33 -90 -33 -184q0 -25 2 -50q11 -121 69.5 -224t149.5 -152q72 -40 166 -42q124 0 194 56t70 126h53v-100q0 -46 -96.5 -86.5 t-242.5 -40.5q-142 0 -264 68t-186 185t-64 243z" />
<glyph unicode="&#xaa;" horiz-adv-x="648" />
<glyph unicode="&#xab;" horiz-adv-x="944" d="M174 479l342 303h14v-37l-205 -266l205 -266v-37h-14zM487 479l342 303h14v-37l-205 -266l205 -266v-37h-14z" />
<glyph unicode="&#xac;" d="M87 667v100h840v-491l-1 -1h-98v392h-741z" />
<glyph unicode="&#xad;" horiz-adv-x="670" d="M116 437v83q0 29 41 29h356q41 0 41 -29v-83q0 -28 -40 -28h-358q-40 0 -40 28z" />
<glyph unicode="&#xae;" horiz-adv-x="1674" d="M100 718q0 148 55.5 283t159.5 238q102 104 238.5 160.5t286.5 56.5q145 0 280 -56.5t239 -160.5q102 -101 158.5 -238t56.5 -283q0 -147 -56.5 -282t-162.5 -240q-105 -105 -239 -159.5t-283 -54.5q-146 0 -278 55.5t-238 160.5q-106 104 -161.5 237.5t-55.5 282.5z M160 718q0 -137 51 -259t148 -219q98 -96 219 -147t256 -51q137 0 259.5 50.5t219.5 145.5q97 98 149 221.5t52 258.5q0 134 -52 259.5t-145 219.5q-96 96 -220 147.5t-258 51.5q-137 0 -262 -51.5t-220 -147.5t-146 -219.5t-51 -259.5zM524 269v50h43q37 0 37 121v538 q0 121 -37 121h-43v70h356q64 -1 125 -42q60 -41 92.5 -114t32.5 -152q0 -78 -32 -150.5t-114 -134.5l82 -116q100 -141 150 -141h34v-50h-346v50h45q30 0 30 22q0 29 -69 114l-75 102q-42 0 -84 42v-159q0 -121 36 -121h53v-50h-316zM751 725l3 -8q23 -56 56 -81 q29 -22 56 -22h6q31 4 61.5 38.5t46.5 97.5q13 50 13 103q0 13 -1 27q-4 67 -28 124.5t-56.5 76t-63.5 18.5h-93v-374z" />
<glyph unicode="&#xaf;" horiz-adv-x="670" />
<glyph unicode="&#xb0;" horiz-adv-x="674" d="M60 1164q0 116 81.5 197t197.5 81q115 0 196 -81.5t81 -196.5q0 -114 -82 -196t-197 -82q-117 0 -197 81t-80 197zM130 1163q0 -87 61 -147t148 -60t147 60t60 147t-60.5 148t-146.5 61t-147.5 -61t-61.5 -148z" />
<glyph unicode="&#xb1;" />
<glyph unicode="&#xb2;" />
<glyph unicode="&#xb3;" />
<glyph unicode="&#xb4;" horiz-adv-x="411" d="M36 1309q3 -1 321 172l1 2l-291 180z" />
<glyph unicode="&#xb5;" horiz-adv-x="1180" />
<glyph unicode="&#xb6;" horiz-adv-x="1024" d="M93 1086q0 157 107.5 253t285.5 96h443v-70h-127v-1365h-82v1365h-166v-1365h-84v738q-174 8 -275.5 102.5t-101.5 245.5z" />
<glyph unicode="&#xb7;" horiz-adv-x="398" d="M40 574q0 63 43.5 107.5t105.5 44.5t105.5 -44.5t43.5 -107.5t-43.5 -108t-105.5 -45t-105.5 45t-43.5 108z" />
<glyph unicode="&#xb8;" horiz-adv-x="1024" d="M360 -290q85 -52 152 -52q66 0 94.5 21.5t28.5 66.5t-49 64q-40 16 -102 16q-16 0 -34 -2l48 176h63l-37 -104q32 4 62 5q86 0 134 -40.5t48 -113.5q0 -76 -58.5 -120.5t-160.5 -44.5q-109 0 -189 32v96z" />
<glyph unicode="&#xb9;" />
<glyph unicode="&#xba;" horiz-adv-x="718" />
<glyph unicode="&#xbb;" horiz-adv-x="944" d="M101 176v37l205 266l-205 266v37h14l342 -303l-342 -303h-14zM414 176v37l205 266l-205 266v37h14l342 -303l-342 -303h-14z" />
<glyph unicode="&#xbc;" horiz-adv-x="1708" />
<glyph unicode="&#xbd;" horiz-adv-x="1964" />
<glyph unicode="&#xbe;" horiz-adv-x="1708" />
<glyph unicode="&#xbf;" horiz-adv-x="748" />
<glyph unicode="&#xc0;" horiz-adv-x="1540" />
<glyph unicode="&#xc1;" horiz-adv-x="1147" d="M0 175q573 1219 592 1254h2l494 -1167l-298 -166l-138 428l-152 4q-124 0 -124 -45l-164 -481l-2 -2h-2zM418 651l322 55l-148 428h-2q-133 -399 -172 -483zM660 1462q3 -1 321 172l1 2l-291 180z" />
<glyph unicode="&#xc2;" horiz-adv-x="1540" />
<glyph unicode="&#xc3;" horiz-adv-x="1540" />
<glyph unicode="&#xc4;" horiz-adv-x="1540" d="M0 175q573 1219 592 1254h2l494 -1167l-298 -166l-138 428l-152 4q-124 0 -124 -45l-164 -481l-2 -2h-2zM285 1521q0 50 38.5 85t93.5 35t94 -35t39 -85q0 -49 -39 -84t-94 -35t-93.5 35t-38.5 84zM418 651l322 55l-148 428h-2q-133 -399 -172 -483zM597 1528 q0 50 38.5 85t93.5 35t94 -35t39 -85q0 -49 -39 -84t-94 -35t-93.5 35t-38.5 84z" />
<glyph unicode="&#xc5;" horiz-adv-x="1540" />
<glyph unicode="&#xc6;" horiz-adv-x="2118" />
<glyph unicode="&#xc7;" horiz-adv-x="1399" />
<glyph unicode="&#xc8;" horiz-adv-x="1151" />
<glyph unicode="&#xc9;" horiz-adv-x="1151" d="M0 1358l4 5h5l799 -71q-18 -234 -35 -234l-339 23l-25 -301h320l9 -9q-11 -193 -21 -193q-287 -47 -313 -61l-39 -188h5l508 47l4 -5v-339q0 -10 -30 -13l-692 -19q-78 407 -160 1358zM487 1396q3 -1 321 172l1 2l-291 180z" />
<glyph unicode="&#xca;" horiz-adv-x="1151" />
<glyph unicode="&#xcb;" horiz-adv-x="1151" d="M0 1358l4 5h5l799 -71q-18 -234 -35 -234l-339 23l-25 -301h320l9 -9q-11 -193 -21 -193q-287 -47 -313 -61l-39 -188h5l508 47l4 -5v-339q0 -10 -30 -13l-692 -19q-78 407 -160 1358zM133 1525q0 54 36.5 92t89.5 38q52 0 89 -38t37 -92q0 -53 -37 -91t-89 -38 q-53 0 -89.5 38t-36.5 91zM478 1525q0 54 36.5 92t89.5 38q52 0 89 -38t37 -92q0 -53 -37 -91t-89 -38q-53 0 -89.5 38t-36.5 91z" />
<glyph unicode="&#xcc;" horiz-adv-x="657" />
<glyph unicode="&#xcd;" horiz-adv-x="590" d="M0 1332l4 4h480l7 -7l-39 -1282l-342 -47l-3 4v3zM124 1386q5 -2 476 225l1 2l-431 236z" />
<glyph unicode="&#xce;" horiz-adv-x="657" />
<glyph unicode="&#xcf;" horiz-adv-x="617" d="M0 1332l4 4h480l7 -7l-39 -1282l-342 -47l-3 4v3zM33 1495q0 41 31.5 70t75.5 29q43 0 74.5 -29t31.5 -70t-31.5 -70.5t-74.5 -29.5q-44 0 -75.5 29.5t-31.5 70.5zM305 1495q0 41 31.5 70t75.5 29q43 0 74.5 -29t31.5 -70t-31.5 -70.5t-74.5 -29.5q-44 0 -75.5 29.5 t-31.5 70.5z" />
<glyph unicode="&#xd0;" horiz-adv-x="1518" />
<glyph unicode="&#xd1;" horiz-adv-x="1554" d="M0 45l364 1285h3l429 -1127l142 956l211 13h29l29 -9q0 -185 -109 -527q-171 -630 -178 -636h-4q-302 12 -302 27l-229 613q-8 0 -69 -284l-80 -320h-229zM484 1075l66 168l146 -56l146 93l146 36l-60 -185l-126 -73l-238 73z" />
<glyph unicode="&#xd2;" horiz-adv-x="1614" />
<glyph unicode="&#xd3;" horiz-adv-x="1614" d="M20 604v21q0 284 269 488q190 130 413 130h15q327 0 550 -258q132 -171 132 -357v-33q0 -255 -247 -466q-209 -143 -419 -143h-53q-247 0 -469 193q-191 193 -191 425zM286 797q0 -7 525 -538h4l196 678zM780 1362q3 -1 321 172l1 2l-291 180z" />
<glyph unicode="&#xd4;" horiz-adv-x="1614" />
<glyph unicode="&#xd5;" horiz-adv-x="1614" />
<glyph unicode="&#xd6;" horiz-adv-x="1505" d="M20 618v21q0 291 263 499q185 133 403 133h14q319 0 538 -264q128 -174 128 -365v-33q0 -261 -241 -477q-204 -146 -409 -146h-52q-241 0 -458 197q-186 197 -186 435zM191 1555q0 80 68.5 136t166.5 56q97 0 165.5 -56t68.5 -136t-68.5 -136t-165.5 -56q-98 0 -166.5 56 t-68.5 136zM280 815q0 -7 512 -549h4l191 692zM757 1555q0 80 69 136t166 56q98 0 166.5 -56t68.5 -136t-68.5 -136t-166.5 -56q-97 0 -166 56t-69 136z" />
<glyph unicode="&#xd7;" d="M161 470l247 247l-247 248l99 98l247 -247l248 247l98 -99l-247 -247l247 -247l-99 -99l-247 247l-247 -247z" />
<glyph unicode="&#xd8;" horiz-adv-x="1614" />
<glyph unicode="&#xd9;" horiz-adv-x="1501" />
<glyph unicode="&#xda;" horiz-adv-x="1300" d="M0 1242q30 11 455 60q9 0 19 -323q16 -176 52 -285q133 -301 230 -317h8q87 0 181 430l8 96q0 99 -28 387h4l231 33q20 -185 20 -360v-75q0 -232 -110 -608q-60 -168 -227 -247q-82 -33 -142 -33h-39q-219 0 -458 381q-65 141 -113 340q-55 279 -91 521zM487 1396 q3 -1 321 172l1 2l-291 180z" />
<glyph unicode="&#xdb;" horiz-adv-x="1501" />
<glyph unicode="&#xdc;" horiz-adv-x="1273" d="M0 1242q30 11 455 60q9 0 19 -323q16 -176 52 -285q133 -301 230 -317h8q87 0 181 430l8 96q0 99 -28 387h4l231 33q20 -185 20 -360v-75q0 -232 -110 -608q-60 -168 -227 -247q-82 -33 -142 -33h-39q-219 0 -458 381q-65 141 -113 340q-55 279 -91 521zM279 1495 q0 64 42.5 108.5t102.5 44.5q61 0 103.5 -44.5t42.5 -108.5q0 -63 -42.5 -107.5t-103.5 -44.5q-60 0 -102.5 44.5t-42.5 107.5zM717 1495q0 64 42.5 108.5t102.5 44.5q61 0 103.5 -44.5t42.5 -108.5q0 -63 -42.5 -107.5t-103.5 -44.5q-60 0 -102.5 44.5t-42.5 107.5z" />
<glyph unicode="&#xdd;" horiz-adv-x="1233" />
<glyph unicode="&#xde;" horiz-adv-x="1120" />
<glyph unicode="&#xdf;" horiz-adv-x="1251" />
<glyph unicode="&#xe0;" horiz-adv-x="922" />
<glyph unicode="&#xe1;" horiz-adv-x="922" d="M0 272v16q0 108 206 343q149 117 214 128q17 0 26 39l12 5l323 3l3 -3l12 -753q-125 -26 -185 -34q-27 65 -35 70q-145 -86 -224 -86h-55q-209 0 -265 147q-32 63 -32 125zM261 301l274 -21l-33 285zM548 865q3 -1 321 172l1 2l-291 180z" />
<glyph unicode="&#xe2;" horiz-adv-x="922" />
<glyph unicode="&#xe3;" horiz-adv-x="922" />
<glyph unicode="&#xe4;" horiz-adv-x="922" d="M0 272v16q0 108 206 343q149 117 214 128q17 0 26 39l12 5l323 3l3 -3l12 -753q-125 -26 -185 -34q-27 65 -35 70q-145 -86 -224 -86h-55q-209 0 -265 147q-32 63 -32 125zM192 952q0 44 35 75t85 31q49 0 84 -31t35 -75t-35 -75t-84 -31q-50 0 -85 31t-35 75zM261 301 l274 -21l-33 285zM504 952q0 44 35 75t85 31q49 0 84 -31t35 -75t-35 -75t-84 -31q-50 0 -85 31t-35 75z" />
<glyph unicode="&#xe5;" horiz-adv-x="922" />
<glyph unicode="&#xe6;" horiz-adv-x="1454" />
<glyph unicode="&#xe7;" horiz-adv-x="905" />
<glyph unicode="&#xe8;" horiz-adv-x="909" />
<glyph unicode="&#xe9;" horiz-adv-x="862" d="M0 273v4q0 373 112 476q84 73 179 73h4q118 0 291 -131q61 -69 116 -215l-447 -150q49 -88 112 -88h22q122 0 242 146l13 4l152 -100q-36 -105 -170 -181q-176 -111 -264 -111h-27q-146 0 -299 138q-36 58 -36 135zM250 588l9 -119l287 57q-80 125 -179 154l-45 8h-22 q-50 0 -50 -100zM402 894q3 -1 334 179l1 1l-303 188z" />
<glyph unicode="&#xea;" horiz-adv-x="909" />
<glyph unicode="&#xeb;" horiz-adv-x="875" d="M0 273v4q0 373 112 476q84 73 179 73h4q118 0 291 -131q61 -69 116 -215l-447 -150q49 -88 112 -88h22q122 0 242 146l13 4l152 -100q-36 -105 -170 -181q-176 -111 -264 -111h-27q-146 0 -299 138q-36 58 -36 135zM99 991q0 44 29.5 75t70.5 31t70 -31t29 -75t-29 -75 t-70 -31t-70.5 31t-29.5 75zM250 588l9 -119l287 57q-80 125 -179 154l-45 8h-22q-50 0 -50 -100zM397 985q0 44 29.5 75t70.5 31t70 -31t29 -75t-29 -75t-70 -31t-70.5 31t-29.5 75z" />
<glyph unicode="&#xec;" horiz-adv-x="514" />
<glyph unicode="&#xed;" horiz-adv-x="514" d="M96 952h4l253 -21l5 -5l-77 -911l-158 -15l-5 5v5l-18 927zM190 986q3 -1 334 179l1 1l-303 188z" />
<glyph unicode="&#xee;" horiz-adv-x="514" />
<glyph unicode="&#xef;" horiz-adv-x="514" d="M46 1184q0 44 32 75t77 31q46 0 78 -31t32 -75t-32 -75t-78 -31q-45 0 -77 31t-32 75zM96 952h4l253 -21l5 -5l-77 -911l-158 -15l-5 5v5l-18 927zM278 1184q0 44 32 75t77 31q46 0 78 -31t32 -75t-32 -75t-78 -31q-45 0 -77 31t-32 75z" />
<glyph unicode="&#xf0;" horiz-adv-x="1139" />
<glyph unicode="&#xf1;" horiz-adv-x="809" d="M0 865q44 28 292 47q21 -27 21 -82v-106l112 6q186 0 297 -253q21 -89 21 -289l-5 -176l-6 -6h-5l-180 -6q-11 0 -43 300q-36 188 -85 188q0 9 -74 18l-58 -6l10 -482l-5 -6h-5l-181 6h-5q-16 0 -53 459zM219 928l66 168l146 -56l146 93l146 36l-60 -185l-126 -73 l-238 73z" />
<glyph unicode="&#xf2;" horiz-adv-x="1010" />
<glyph unicode="&#xf3;" horiz-adv-x="1041" d="M20 438v15q0 208 181 357q128 95 278 95h10q220 0 370 -189q89 -124 89 -261v-23q0 -187 -166 -341q-141 -105 -282 -105h-36q-166 0 -316 141q-128 141 -128 311zM199 579q0 -5 354 -393h2l132 495zM575 974q3 -1 334 179l1 1l-303 188z" />
<glyph unicode="&#xf4;" horiz-adv-x="1010" />
<glyph unicode="&#xf5;" horiz-adv-x="1010" />
<glyph unicode="&#xf6;" horiz-adv-x="1010" d="M20 411v14q0 196 163 336q115 89 250 89h10q198 0 333 -177q80 -118 80 -246v-22q0 -176 -150 -321q-127 -98 -254 -98h-32q-150 0 -284 133q-116 132 -116 292zM126 1041q0 54 42.5 92t103.5 38q60 0 103 -38t43 -92q0 -53 -43 -91t-103 -38q-61 0 -103.5 38t-42.5 91z M181 544q0 -5 319 -370h2l119 466zM478 1041q0 54 42.5 92t103.5 38q60 0 103 -38t43 -92q0 -53 -43 -91t-103 -38q-61 0 -103.5 38t-42.5 91z" />
<glyph unicode="&#xf7;" d="M87 647v140h839l1 -1v-139h-840zM382 377q0 15 16 31l82 84q15 14 29 14q13 0 31 -16l80 -86q12 -16 12 -29q0 -15 -14 -31l-80 -88q-20 -20 -29 -20q-16 0 -29 14l-88 101q-10 13 -10 26zM382 1070q0 15 16 31l82 84q15 14 29 14q13 0 31 -16l80 -86q12 -16 12 -29 q0 -15 -14 -31l-80 -88q-20 -20 -29 -20q-16 0 -29 14l-88 101q-10 13 -10 26z" />
<glyph unicode="&#xf8;" horiz-adv-x="1010" />
<glyph unicode="&#xf9;" horiz-adv-x="1059" />
<glyph unicode="&#xfa;" horiz-adv-x="1059" d="M0 881q24 7 368 42q7 0 16 -229q13 -125 41 -202q108 -213 187 -225h7q69 0 146 305l6 68q0 70 -22 275h3l187 23q16 -131 16 -255v-53q0 -165 -89 -432q-48 -119 -184 -175q-66 -23 -114 -23h-32q-177 0 -371 270q-53 100 -92 241q-44 198 -73 370zM500 998 q3 -1 321 172l1 2l-291 180z" />
<glyph unicode="&#xfb;" horiz-adv-x="1059" />
<glyph unicode="&#xfc;" horiz-adv-x="1021" d="M0 881q24 7 368 42q7 0 16 -229q13 -125 41 -202q108 -213 187 -225h7q69 0 146 305l6 68q0 70 -22 275h3l187 23q16 -131 16 -255v-53q0 -165 -89 -432q-48 -119 -184 -175q-66 -23 -114 -23h-32q-177 0 -371 270q-53 100 -92 241q-44 198 -73 370zM199 1127 q0 62 40 106t96 44t96 -44t40 -106q0 -61 -40 -105t-96 -44t-96 44t-40 105zM604 1134q0 62 40 106t96 44t96 -44t40 -106q0 -61 -40 -105t-96 -44t-96 44t-40 105z" />
<glyph unicode="&#xfd;" horiz-adv-x="868" />
<glyph unicode="&#xfe;" horiz-adv-x="1010" />
<glyph unicode="&#xff;" horiz-adv-x="868" />
<glyph unicode="&#x2c6;" horiz-adv-x="1024" d="M221 1079l232 355h118l232 -355h-58l-233 216l-233 -216h-58z" />
<glyph unicode="&#x2dc;" horiz-adv-x="1024" d="M234 1132q19 106 68 158.5t129 52.5q46 -1 113 -24q64 -23 112 -23h4q36 0 58 20t36 66h54q-20 -103 -68.5 -154t-126.5 -51h-4q-50 0 -113 23q-66 24 -114 24q-39 0 -60.5 -20.5t-33.5 -71.5h-54z" />
<glyph unicode="&#x2000;" horiz-adv-x="924" />
<glyph unicode="&#x2001;" horiz-adv-x="1849" />
<glyph unicode="&#x2002;" horiz-adv-x="924" />
<glyph unicode="&#x2003;" horiz-adv-x="1849" />
<glyph unicode="&#x2004;" horiz-adv-x="616" />
<glyph unicode="&#x2005;" horiz-adv-x="462" />
<glyph unicode="&#x2006;" horiz-adv-x="308" />
<glyph unicode="&#x2007;" horiz-adv-x="308" />
<glyph unicode="&#x2008;" horiz-adv-x="231" />
<glyph unicode="&#x2009;" horiz-adv-x="369" />
<glyph unicode="&#x200a;" horiz-adv-x="102" />
<glyph unicode="&#x2010;" horiz-adv-x="670" d="M116 437v83q0 29 41 29h356q41 0 41 -29v-83q0 -28 -40 -28h-358q-40 0 -40 28z" />
<glyph unicode="&#x2011;" horiz-adv-x="670" d="M116 437v83q0 29 41 29h356q41 0 41 -29v-83q0 -28 -40 -28h-358q-40 0 -40 28z" />
<glyph unicode="&#x2012;" horiz-adv-x="670" d="M116 437v83q0 29 41 29h356q41 0 41 -29v-83q0 -28 -40 -28h-358q-40 0 -40 28z" />
<glyph unicode="&#x2013;" horiz-adv-x="1108" d="M56 419v120h996v-120h-996z" />
<glyph unicode="&#x2014;" horiz-adv-x="2048" d="M0 419v120h2048v-120h-2048z" />
<glyph unicode="&#x2018;" horiz-adv-x="378" d="M11 1459l322 -151q2 3 -51 361l-2 1z" />
<glyph unicode="&#x2019;" horiz-adv-x="405" d="M31 1245q3 -1 333 148l1 2l-277 201z" />
<glyph unicode="&#x201a;" horiz-adv-x="438" d="M21 -122l344 90q0 3 -270 245h-2z" />
<glyph unicode="&#x201c;" horiz-adv-x="749" d="M11 1459l322 -151q2 3 -51 361l-2 1zM369 1462l322 -151q2 3 -51 361l-2 1z" />
<glyph unicode="&#x201d;" horiz-adv-x="743" d="M11 1288q3 -1 342 126l1 1l-263 219zM333 1302l349 64q1 3 -250 264h-3z" />
<glyph unicode="&#x201e;" horiz-adv-x="743" d="M24 -105q3 -1 342 126l1 1l-263 219zM346 -91l349 64q1 3 -250 264h-3z" />
<glyph unicode="&#x2022;" horiz-adv-x="1024" d="M216 718q0 123 87 209t210 86q122 0 208.5 -86.5t86.5 -208.5t-87.5 -209.5t-209.5 -87.5q-123 0 -209 87t-86 210z" />
<glyph unicode="&#x2026;" horiz-adv-x="2048" d="M129 136q0 15 16 31l82 84q15 14 29 14q13 0 31 -16l80 -86q12 -16 12 -29q0 -15 -14 -31l-80 -88q-20 -20 -29 -20q-16 0 -29 14l-88 101q-10 13 -10 26zM812 136q0 15 16 31l82 84q15 14 29 14q13 0 31 -16l80 -86q12 -16 12 -29q0 -15 -14 -31l-80 -88 q-20 -20 -29 -20q-16 0 -29 14l-88 101q-10 13 -10 26zM1495 136q0 15 16 31l82 84q15 14 29 14q13 0 31 -16l80 -86q12 -16 12 -29q0 -15 -14 -31l-80 -88q-20 -20 -29 -20q-16 0 -29 14l-88 101q-10 13 -10 26z" />
<glyph unicode="&#x202f;" horiz-adv-x="369" />
<glyph unicode="&#x2039;" horiz-adv-x="631" d="M174 479l342 303h14v-37l-205 -266l205 -266v-37h-14z" />
<glyph unicode="&#x203a;" horiz-adv-x="631" d="M101 176v37l205 266l-205 266v37h14l342 -303l-342 -303h-14z" />
<glyph unicode="&#x205f;" horiz-adv-x="462" />
<glyph unicode="&#x20ac;" d="M-44 653l17 60h87v29q0 16 1 31h-71l17 60h58q14 145 76 281q81 178 226 274t298 96q43 0 87 -8q40 -10 82 -29q8 -6 16 -6q20 0 34 45h41l84 -281l-40 -1q-49 134 -138 178q-43 22 -81 32v3q-50 16 -101 16q-17 0 -34 -2q-120 -12 -226 -113.5t-157 -273.5 q-32 -104 -39 -211h706l-17 -60h-692q0 -30 2 -60h674l-17 -60h-652q17 -158 83 -298q74 -157 193 -236q102 -68 216 -69q186 3 256 91q74 91 74 185h48v-143q0 -70 -111 -127q-105 -54 -267 -56q-181 0 -325.5 98t-223.5 274q-62 135 -76 281h-108z" />
<glyph unicode="&#x2122;" horiz-adv-x="630" d="M10 1264l43 9l-4 47l-1 1l1 2h66l2 -2h2l-19 -53h1q95 -9 95 -13q-10 -38 -15 -38l-74 -3l27 -178q0 -2 -88 -4l-1 2l-4 169q0 11 -18 11q-10 2 -10 9zM214 1274l94 24l2 -5l-2 -55h2q22 20 51 20q43 0 69 -33q32 32 59 32h21q66 0 89 -81l1 -19v-4q0 -48 -13 -119h-79 l-1 1h-1q5 56 5 102v16q0 39 -47 39h-8l-7 -1q5 -16 5 -31v-3q0 -53 -13 -123h-78l-2 1h-1q5 56 5 102v16q0 39 -47 39h-11q-6 0 -7 -155l-7 -3l-70 -3l-2 2l-6 231z" />
<glyph unicode="&#x25fc;" horiz-adv-x="1010" d="M0 0v1010h1010v-1010h-1010z" />
</font>
</defs>
</svg>
